<svg xmlns="http://www.w3.org/2000/svg" viewBox="0 0 1000 700" width="100%" height="100%">
  <defs>
    <linearGradient id="bgGrad" x1="0%" y1="0%" x2="100%" y2="100%">
      <stop offset="0%" stop-color="#FFFFFF" />
      <stop offset="100%" stop-color="#F8FAFC" />
    </linearGradient>
  </defs>

  <rect width="1000" height="700" fill="url(#bgGrad)" />

  <rect x="20" y="20" width="960" height="660" fill="#FFFFFF" stroke="#D97706" stroke-width="2" rx="4" />
  
  <polygon points="20,20 60,20 20,60" fill="#D97706" />
  <polygon points="980,20 940,20 980,60" fill="#D97706" />
  <polygon points="20,680 60,680 20,640" fill="#D97706" />
  <polygon points="980,680 940,680 980,640" fill="#D97706" />

  <rect x="730" y="20" width="130" height="460" fill="#1E293B" />
  <rect x="740" y="20" width="4" height="460" fill="#D97706" />
  <rect x="846" y="20" width="4" height="460" fill="#D97706" />

  <g transform="translate(795, 480)">
    <circle cx="0" cy="0" r="56" fill="#D97706" />
    <circle cx="0" cy="0" r="48" fill="#1E293B" />
    <circle cx="0" cy="0" r="42" fill="none" stroke="#D97706" stroke-width="2" />
    <text x="0" y="6" font-family="Arial, sans-serif" font-size="20" font-weight="900" fill="#D97706" text-anchor="middle">92</text>
    <text x="0" y="22" font-family="Arial, sans-serif" font-size="9" font-weight="bold" fill="#FFFFFF" text-anchor="middle">WPM</text>
  </g>

  <!-- Header Branding -->
  <g transform="translate(80, 75)">
    <text x="0" y="0" font-family="Arial, sans-serif" font-size="24" font-weight="900" fill="#D97706">monkey<tspan fill="#1E293B">type</tspan></text>
    <rect x="160" y="-18" width="1.5" height="24" fill="#CBD5E1" />
    <text x="175" y="-1" font-family="Arial, sans-serif" font-size="12" font-weight="bold" fill="#64748B" letter-spacing="1">GLOBAL SPEED BOARD</text>
  </g>

  <text x="80" y="150" font-family="'Times New Roman', Georgia, serif" font-size="20" letter-spacing="2" fill="#475569">CERTIFICATE OF COMPLETION</text>
  <text x="80" y="195" font-family="Arial, sans-serif" font-size="28" font-weight="800" fill="#0F172A">Touch Typing Speed Mastery (92 WPM)</text>

  <text x="80" y="275" font-family="Arial, sans-serif" font-size="36" font-weight="bold" fill="#0F172A">Anshul Raturi</text>
  <line x1="80" y1="290" x2="650" y2="290" stroke="#CBD5E1" stroke-width="1" stroke-dasharray="3,3" />

  <text x="80" y="335" font-family="Arial, sans-serif" font-size="14" fill="#64748B">has achieved an elite score in 60-second English blind touch-typing test:</text>
  <text x="80" y="375" font-family="Arial, sans-serif" font-size="24" font-weight="900" fill="#D97706">92 WPM <tspan font-size="15" font-weight="normal" fill="#475569">(Words Per Minute)</tspan></text>
  <text x="80" y="405" font-family="Arial, sans-serif" font-size="13" font-weight="bold" fill="#16A34A">Accuracy Rating: 99.2%  |  Consistency: 88%</text>

  <text x="80" y="440" font-family="Arial, sans-serif" font-size="13" fill="#64748B">Verified under standardized test parameters. Placed in the top 1% globally for typing speed.</text>

  <g transform="translate(400, 480) rotate(-12)" opacity="0.12">
    <circle cx="0" cy="0" r="65" fill="none" stroke="#D97706" stroke-width="4" />
    <text x="0" y="8" font-family="Arial, sans-serif" font-size="18" font-weight="bold" fill="#D97706" text-anchor="middle">OFFICIAL</text>
  </g>

  <g transform="translate(520, 540)">
    <text x="0" y="30" font-family="Arial, sans-serif" font-size="13" font-weight="bold" fill="#334155">Monkeytype Board</text>
    <text x="0" y="48" font-family="Arial, sans-serif" font-size="12" fill="#64748B">Global Leaderboard Verification</text>
  </g>

  <text x="80" y="570" font-family="Arial, sans-serif" font-size="14" font-weight="bold" fill="#334155">29<tspan font-size="10" dy="-4">th</tspan><tspan font-size="14" dy="4"> March 2026</tspan></text>
  <text x="80" y="598" font-family="Arial, sans-serif" font-size="14" fill="#334155">Verification Code : <tspan font-weight="bold">MT-92WPM-AR2024</tspan></text>

</svg>
